<svg id="my-svg" width="100%" xmlns="http://www.w3.org/2000/svg" xmlns:xlink="http://www.w3.org/1999/xlink" class="classDiagram" style="max-width: 714.836px; background-color: white;" viewBox="0 0 714.8359375 614" role="graphics-document document" aria-roledescription="class"><style>#my-svg{font-family:"trebuchet ms",verdana,arial,sans-serif;font-size:16px;fill:#333;}@keyframes edge-animation-frame{from{stroke-dashoffset:0;}}@keyframes dash{to{stroke-dashoffset:0;}}#my-svg .edge-animation-slow{stroke-dasharray:9,5!important;stroke-dashoffset:900;animation:dash 50s linear infinite;stroke-linecap:round;}#my-svg .edge-animation-fast{stroke-dasharray:9,5!important;stroke-dashoffset:900;animation:dash 20s linear infinite;stroke-linecap:round;}#my-svg .error-icon{fill:#552222;}#my-svg .error-text{fill:#552222;stroke:#552222;}#my-svg .edge-thickness-normal{stroke-width:1px;}#my-svg .edge-thickness-thick{stroke-width:3.5px;}#my-svg .edge-pattern-solid{stroke-dasharray:0;}#my-svg .edge-thickness-invisible{stroke-width:0;fill:none;}#my-svg .edge-pattern-dashed{stroke-dasharray:3;}#my-svg .edge-pattern-dotted{stroke-dasharray:2;}#my-svg .marker{fill:#333333;stroke:#333333;}#my-svg .marker.cross{stroke:#333333;}#my-svg svg{font-family:"trebuchet ms",verdana,arial,sans-serif;font-size:16px;}#my-svg p{margin:0;}#my-svg g.classGroup text{fill:#9370DB;stroke:none;font-family:"trebuchet ms",verdana,arial,sans-serif;font-size:10px;}#my-svg g.classGroup text .title{font-weight:bolder;}#my-svg .cluster-label text{fill:#333;}#my-svg .cluster-label span{color:#333;}#my-svg .cluster-label span p{background-color:transparent;}#my-svg .cluster rect{fill:#ffffde;stroke:#aaaa33;stroke-width:1px;}#my-svg .cluster text{fill:#333;}#my-svg .cluster span{color:#333;}#my-svg .nodeLabel,#my-svg .edgeLabel{color:#131300;}#my-svg .noteLabel .nodeLabel,#my-svg .noteLabel .edgeLabel{color:black;}#my-svg .edgeLabel .label rect{fill:#ECECFF;}#my-svg .label text{fill:#131300;}#my-svg .labelBkg{background:#ECECFF;}#my-svg .edgeLabel .label span{background:#ECECFF;}#my-svg .classTitle{font-weight:bolder;}#my-svg .node rect,#my-svg .node circle,#my-svg .node ellipse,#my-svg .node polygon,#my-svg .node path{fill:#ECECFF;stroke:#9370DB;stroke-width:1;}#my-svg .divider{stroke:#9370DB;stroke-width:1;}#my-svg g.clickable{cursor:pointer;}#my-svg g.classGroup rect{fill:#ECECFF;stroke:#9370DB;}#my-svg g.classGroup line{stroke:#9370DB;stroke-width:1;}#my-svg .classLabel .box{stroke:none;stroke-width:0;fill:#ECECFF;opacity:0.5;}#my-svg .classLabel .label{fill:#9370DB;font-size:10px;}#my-svg .relation{stroke:#333333;stroke-width:1;fill:none;}#my-svg .dashed-line{stroke-dasharray:3;}#my-svg .dotted-line{stroke-dasharray:1 2;}#my-svg [id$="-compositionStart"],#my-svg .composition{fill:#333333!important;stroke:#333333!important;stroke-width:1;}#my-svg [id$="-compositionEnd"],#my-svg .composition{fill:#333333!important;stroke:#333333!important;stroke-width:1;}#my-svg [id$="-dependencyStart"],#my-svg .dependency{fill:#333333!important;stroke:#333333!important;stroke-width:1;}#my-svg [id$="-dependencyEnd"],#my-svg .dependency{fill:#333333!important;stroke:#333333!important;stroke-width:1;}#my-svg [id$="-extensionStart"],#my-svg .extension{fill:transparent!important;stroke:#333333!important;stroke-width:1;}#my-svg [id$="-extensionEnd"],#my-svg .extension{fill:transparent!important;stroke:#333333!important;stroke-width:1;}#my-svg [id$="-aggregationStart"],#my-svg .aggregation{fill:transparent!important;stroke:#333333!important;stroke-width:1;}#my-svg [id$="-aggregationEnd"],#my-svg .aggregation{fill:transparent!important;stroke:#333333!important;stroke-width:1;}#my-svg [id$="-lollipopStart"],#my-svg .lollipop{fill:#ECECFF!important;stroke:#333333!important;stroke-width:1;}#my-svg [id$="-lollipopEnd"],#my-svg .lollipop{fill:#ECECFF!important;stroke:#333333!important;stroke-width:1;}#my-svg .edgeTerminals{font-size:11px;line-height:initial;}#my-svg .classTitleText{text-anchor:middle;font-size:18px;fill:#333;}#my-svg .edgeLabel[data-look="neo"]{background-color:rgba(232,232,232, 0.8);text-align:center;}#my-svg .edgeLabel[data-look="neo"] p{background-color:rgba(232,232,232, 0.8);}#my-svg .edgeLabel[data-look="neo"] rect{opacity:0.5;background-color:rgba(232,232,232, 0.8);fill:rgba(232,232,232, 0.8);}#my-svg .label-icon{display:inline-block;height:1em;overflow:visible;vertical-align:-0.125em;}#my-svg .node .label-icon path{fill:currentColor;stroke:revert;stroke-width:revert;}#my-svg .node .neo-node{stroke:#9370DB;}#my-svg [data-look="neo"].node rect,#my-svg [data-look="neo"].cluster rect,#my-svg [data-look="neo"].node polygon{stroke:#9370DB;filter:drop-shadow(1px 2px 2px rgba(185, 185, 185, 1));}#my-svg [data-look="neo"].swimlane.cluster rect{filter:none;}#my-svg [data-look="neo"].node path{stroke:#9370DB;stroke-width:1px;}#my-svg [data-look="neo"].node .outer-path{filter:drop-shadow(1px 2px 2px rgba(185, 185, 185, 1));}#my-svg [data-look="neo"].node .neo-line path{stroke:#9370DB;filter:none;}#my-svg [data-look="neo"].node circle{stroke:#9370DB;filter:drop-shadow(1px 2px 2px rgba(185, 185, 185, 1));}#my-svg [data-look="neo"].node circle .state-start{fill:#000000;}#my-svg [data-look="neo"].icon-shape .icon{fill:#9370DB;filter:drop-shadow(1px 2px 2px rgba(185, 185, 185, 1));}#my-svg [data-look="neo"].icon-shape .icon-neo path{stroke:#9370DB;filter:drop-shadow(1px 2px 2px rgba(185, 185, 185, 1));}#my-svg :root{--mermaid-font-family:"trebuchet ms",verdana,arial,sans-serif;}</style><g><defs><marker id="my-svg_class-aggregationStart" class="marker aggregation class" refX="18" refY="7" markerWidth="190" markerHeight="240" orient="auto"><path d="M 18,7 L9,13 L1,7 L9,1 Z"/></marker></defs><defs><marker id="my-svg_class-aggregationEnd" class="marker aggregation class" refX="1" refY="7" markerWidth="20" markerHeight="28" orient="auto"><path d="M 18,7 L9,13 L1,7 L9,1 Z"/></marker></defs><defs><marker id="my-svg_class-aggregationStart-margin" class="marker aggregation class" refX="15" refY="7" markerWidth="190" markerHeight="240" orient="auto" markerUnits="userSpaceOnUse"><path d="M 18,7 L9,13 L1,7 L9,1 Z" style="stroke-width: 2;"/></marker></defs><defs><marker id="my-svg_class-aggregationEnd-margin" class="marker aggregation class" refX="1" refY="7" markerWidth="20" markerHeight="28" orient="auto" markerUnits="userSpaceOnUse"><path d="M 18,7 L9,13 L1,7 L9,1 Z" style="stroke-width: 2;"/></marker></defs><defs><marker id="my-svg_class-extensionStart" class="marker extension class" refX="18" refY="7" markerWidth="20" markerHeight="28" orient="auto" markerUnits="userSpaceOnUse"><path d="M 1,7 L18,13 V 1 Z"/></marker></defs><defs><marker id="my-svg_class-extensionEnd" class="marker extension class" refX="1" refY="7" markerWidth="20" markerHeight="28" orient="auto"><path d="M 1,1 V 13 L18,7 Z"/></marker></defs><marker id="my-svg_class-extensionStart-margin" class="marker extension class" refX="18" refY="7" markerWidth="20" markerHeight="28" orient="auto" markerUnits="userSpaceOnUse" viewBox="0 0 20 14"><polygon points="10,7 18,13 18,1" style="stroke-width: 2; stroke-dasharray: 0;"/></marker><defs><marker id="my-svg_class-extensionEnd-margin" class="marker extension class" refX="9" refY="7" markerWidth="20" markerHeight="28" orient="auto" markerUnits="userSpaceOnUse" viewBox="0 0 20 14"><polygon points="10,1 10,13 18,7" style="stroke-width: 2; stroke-dasharray: 0;"/></marker></defs><defs><marker id="my-svg_class-compositionStart" class="marker composition class" refX="18" refY="7" markerWidth="190" markerHeight="240" orient="auto"><path d="M 18,7 L9,13 L1,7 L9,1 Z"/></marker></defs><defs><marker id="my-svg_class-compositionEnd" class="marker composition class" refX="1" refY="7" markerWidth="20" markerHeight="28" orient="auto"><path d="M 18,7 L9,13 L1,7 L9,1 Z"/></marker></defs><defs><marker id="my-svg_class-compositionStart-margin" class="marker composition class" refX="15" refY="7" markerWidth="190" markerHeight="240" orient="auto" markerUnits="userSpaceOnUse"><path viewBox="0 0 15 15" d="M 18,7 L9,13 L1,7 L9,1 Z" style="stroke-width: 0;"/></marker></defs><defs><marker id="my-svg_class-compositionEnd-margin" class="marker composition class" refX="3.5" refY="7" markerWidth="20" markerHeight="28" orient="auto" markerUnits="userSpaceOnUse"><path d="M 18,7 L9,13 L1,7 L9,1 Z" style="stroke-width: 0;"/></marker></defs><defs><marker id="my-svg_class-dependencyStart" class="marker dependency class" refX="6" refY="7" markerWidth="190" markerHeight="240" orient="auto"><path d="M 5,7 L9,13 L1,7 L9,1 Z"/></marker></defs><defs><marker id="my-svg_class-dependencyEnd" class="marker dependency class" refX="13" refY="7" markerWidth="20" markerHeight="28" orient="auto"><path d="M 18,7 L9,13 L14,7 L9,1 Z"/></marker></defs><defs><marker id="my-svg_class-dependencyStart-margin" class="marker dependency class" refX="4" refY="7" markerWidth="190" markerHeight="240" orient="auto" markerUnits="userSpaceOnUse"><path d="M 5,7 L9,13 L1,7 L9,1 Z" style="stroke-width: 0;"/></marker></defs><defs><marker id="my-svg_class-dependencyEnd-margin" class="marker dependency class" refX="16" refY="7" markerWidth="20" markerHeight="28" orient="auto" markerUnits="userSpaceOnUse"><path d="M 18,7 L9,13 L14,7 L9,1 Z" style="stroke-width: 0;"/></marker></defs><defs><marker id="my-svg_class-lollipopStart" class="marker lollipop class" refX="13" refY="7" markerWidth="190" markerHeight="240" orient="auto"><circle fill="transparent" cx="7" cy="7" r="6"/></marker></defs><defs><marker id="my-svg_class-lollipopEnd" class="marker lollipop class" refX="1" refY="7" markerWidth="190" markerHeight="240" orient="auto"><circle fill="transparent" cx="7" cy="7" r="6"/></marker></defs><defs><marker id="my-svg_class-lollipopStart-margin" class="marker lollipop class" refX="13" refY="7" markerWidth="190" markerHeight="240" orient="auto" markerUnits="userSpaceOnUse"><circle fill="transparent" cx="7" cy="7" r="6" stroke-width="2"/></marker></defs><defs><marker id="my-svg_class-lollipopEnd-margin" class="marker lollipop class" refX="1" refY="7" markerWidth="190" markerHeight="240" orient="auto" markerUnits="userSpaceOnUse"><circle fill="transparent" cx="7" cy="7" r="6" stroke-width="2"/></marker></defs><g class="root"><g class="clusters"/><g class="edgePaths"><path d="M580.574,109.25L580.574,110.542C580.574,111.833,580.574,114.417,580.574,123.875C580.574,133.333,580.574,149.667,580.574,157.833L580.574,166" id="my-svg-id_QThread_QtFiberThread_1" class="edge-thickness-normal edge-pattern-solid relation" style=";;;" data-edge="true" data-et="edge" data-id="id_QThread_QtFiberThread_1" data-points="W3sieCI6NTgwLjU3NDIxODc1LCJ5Ijo5Mn0seyJ4Ijo1ODAuNTc0MjE4NzUsInkiOjExN30seyJ4Ijo1ODAuNTc0MjE4NzUsInkiOjE2Nn1d" data-look="classic" marker-start="url(#my-svg_class-extensionStart)"/><path d="M101.305,374.756L100.48,378.13C99.655,381.504,98.004,388.252,98.943,397.793C99.881,407.333,103.409,419.667,105.173,425.833L106.936,432" id="my-svg-id_FibersPool_FiberThreadBlock_2" class="edge-thickness-normal edge-pattern-solid relation" style=";;;" data-edge="true" data-et="edge" data-id="id_FibersPool_FiberThreadBlock_2" data-points="W3sieCI6MTA1LjQwMzY2Mzc5MzEwMzQ1LCJ5IjozNTh9LHsieCI6OTYuMzUzNTE1NjI1LCJ5IjozOTV9LHsieCI6MTA2LjkzNjM1MDE3NjQxMTMsInkiOjQzMn1d" data-look="classic" marker-start="url(#my-svg_class-compositionStart)"/><path d="M500.035,347.288L493.452,355.24C486.869,363.192,473.703,379.096,430.415,400.894C387.126,422.692,313.715,450.385,277.01,464.231L240.305,478.077" id="my-svg-id_QtFiberThread_FiberThreadBlock_3" class="edge-thickness-normal edge-pattern-solid relation" style=";;;" data-edge="true" data-et="edge" data-id="id_QtFiberThread_FiberThreadBlock_3" data-points="W3sieCI6NTExLjAzNTQ3OTUyNTg2MjA2LCJ5IjozMzR9LHsieCI6NDYwLjUzNzEwOTM3NSwieSI6Mzk1fSx7IngiOjI0MC4zMDQ2ODc1LCJ5Ijo0NzguMDc3MDQ1NTY2NjI2ODV9XQ==" data-look="classic" marker-start="url(#my-svg_class-compositionStart)"/><path d="M255.641,338.818L268.694,348.182C281.748,357.545,307.855,376.273,324.543,398.342C341.231,420.41,348.499,445.821,352.133,458.526L355.767,471.231" id="my-svg-id_FibersPool_QtFiberScheduler_4" class="edge-thickness-normal edge-pattern-dashed relation" style=";;;" data-edge="true" data-et="edge" data-id="id_FibersPool_QtFiberScheduler_4" data-points="W3sieCI6MjU1LjY0MDYyNSwieSI6MzM4LjgxODIyNjYxNTI2NDJ9LHsieCI6MzMzLjk2Mjg5MDYyNSwieSI6Mzk1fSx7IngiOjM1Ny40MTY3NDAxNzEzNzEsInkiOjQ3N31d" data-look="classic" marker-end="url(#my-svg_class-dependencyEnd)"/><path d="M591.004,334L592.266,344.167C593.529,354.333,596.053,374.667,597.316,397.5C598.578,420.333,598.578,445.667,598.578,458.333L598.578,471" id="my-svg-id_QtFiberThread_QtLocalFiberScheduler_5" class="edge-thickness-normal edge-pattern-dashed relation" style=";;;" data-edge="true" data-et="edge" data-id="id_QtFiberThread_QtLocalFiberScheduler_5" data-points="W3sieCI6NTkxLjAwNDA2Nzg4NzkzMSwieSI6MzM0fSx7IngiOjU5OC41NzgxMjUsInkiOjM5NX0seyJ4Ijo1OTguNTc4MTI1LCJ5Ijo0Nzd9XQ==" data-look="classic" marker-end="url(#my-svg_class-dependencyEnd)"/></g><g class="edgeLabels"><g class="edgeLabel"><g class="label" data-id="id_QThread_QtFiberThread_1" transform="translate(0, 0)"><foreignObject width="0" height="0"><div xmlns="http://www.w3.org/1999/xhtml" class="labelBkg" style="display: table-cell; white-space: nowrap; line-height: 1.5; max-width: 200px; text-align: center;"><span class="edgeLabel"></span></div></foreignObject></g></g><g class="edgeLabel"><g class="label" data-id="id_FibersPool_FiberThreadBlock_2" transform="translate(0, 0)"><foreignObject width="0" height="0"><div xmlns="http://www.w3.org/1999/xhtml" class="labelBkg" style="display: table-cell; white-space: nowrap; line-height: 1.5; max-width: 200px; text-align: center;"><span class="edgeLabel"></span></div></foreignObject></g></g><g class="edgeLabel"><g class="label" data-id="id_QtFiberThread_FiberThreadBlock_3" transform="translate(0, 0)"><foreignObject width="0" height="0"><div xmlns="http://www.w3.org/1999/xhtml" class="labelBkg" style="display: table-cell; white-space: nowrap; line-height: 1.5; max-width: 200px; text-align: center;"><span class="edgeLabel"></span></div></foreignObject></g></g><g class="edgeLabel" transform="translate(329.45298, 391.76497)"><g class="label" data-id="id_FibersPool_QtFiberScheduler_4" transform="translate(-40.0078125, -12)"><foreignObject width="80.015625" height="24"><div xmlns="http://www.w3.org/1999/xhtml" class="labelBkg" style="display: table-cell; white-space: nowrap; line-height: 1.5; max-width: 200px; text-align: center;"><span class="edgeLabel"><p>每线程安装</p></span></div></foreignObject></g></g><g class="edgeLabel" transform="translate(598.578125, 395)"><g class="label" data-id="id_QtFiberThread_QtLocalFiberScheduler_5" transform="translate(-16.0078125, -12)"><foreignObject width="32.015625" height="24"><div xmlns="http://www.w3.org/1999/xhtml" class="labelBkg" style="display: table-cell; white-space: nowrap; line-height: 1.5; max-width: 200px; text-align: center;"><span class="edgeLabel"><p>安装</p></span></div></foreignObject></g></g></g><g class="nodes"><g class="node default" id="my-svg-classId-FibersPool-0" data-look="classic" transform="translate(131.8203125, 250)"><g class="basic label-container outer-path"><path d="M-123.8203125 -108 L123.8203125 -108 L123.8203125 108 L-123.8203125 108" stroke="none" stroke-width="0" fill="#ECECFF" style=""/><path d="M-123.8203125 -108 C-73.01029431867455 -108, -22.200276137349107 -108, 123.8203125 -108 M-123.8203125 -108 C-65.83965444636115 -108, -7.85899639272229 -108, 123.8203125 -108 M123.8203125 -108 C123.8203125 -26.89751351367005, 123.8203125 54.2049729726599, 123.8203125 108 M123.8203125 -108 C123.8203125 -40.90231760042944, 123.8203125 26.195364799141117, 123.8203125 108 M123.8203125 108 C37.08622522535758 108, -49.64786204928484 108, -123.8203125 108 M123.8203125 108 C26.117709012457453 108, -71.5848944750851 108, -123.8203125 108 M-123.8203125 108 C-123.8203125 28.189615493902636, -123.8203125 -51.62076901219473, -123.8203125 -108 M-123.8203125 108 C-123.8203125 34.52551732588452, -123.8203125 -38.948965348230956, -123.8203125 -108" stroke="#9370DB" stroke-width="1.3" fill="none" stroke-dasharray="0 0" style=""/></g><g class="annotation-group text" transform="translate(0, -84)"/><g class="label-group text" transform="translate(-41.34375, -84)"><g class="label" style="font-weight: bolder" transform="translate(0,-12)"><foreignObject width="82.6875" height="24"><div xmlns="http://www.w3.org/1999/xhtml" style="display: table-cell; white-space: nowrap; line-height: 1.5; max-width: 120px; text-align: center;"><span class="nodeLabel markdown-node-label" style=""><p>FibersPool</p></span></div></foreignObject></g></g><g class="members-group text" transform="translate(-111.8203125, -36)"><g class="label" style="" transform="translate(0,-12)"><foreignObject width="147.640625" height="24"><div xmlns="http://www.w3.org/1999/xhtml" style="display: table-cell; white-space: nowrap; line-height: 1.5; max-width: 226px; text-align: center;"><span class="nodeLabel markdown-node-label" style=""><p>-tds_ vector&lt;thread&gt;</p></span></div></foreignObject></g><g class="label" style="" transform="translate(0,12)"><foreignObject width="182.296875" height="24"><div xmlns="http://www.w3.org/1999/xhtml" style="display: table-cell; white-space: nowrap; line-height: 1.5; max-width: 238px; text-align: center;"><span class="nodeLabel markdown-node-label" style=""><p>-block_ FiberThreadBlock</p></span></div></foreignObject></g></g><g class="methods-group text" transform="translate(-111.8203125, 36)"><g class="label" style="text-decoration:underline;" transform="translate(0,-12)"><foreignObject width="180.078125" height="24"><div xmlns="http://www.w3.org/1999/xhtml" style="display: table-cell; white-space: nowrap; line-height: 1.5; max-width: 221px; text-align: center;"><span class="nodeLabel markdown-node-label" style=""><p>+instance() : FibersPool&amp;</p></span></div></foreignObject></g><g class="label" style="" transform="translate(0,12)"><foreignObject width="57.359375" height="24"><div xmlns="http://www.w3.org/1999/xhtml" style="display: table-cell; white-space: nowrap; line-height: 1.5; max-width: 107px; text-align: center;"><span class="nodeLabel markdown-node-label" style=""><p>+close()</p></span></div></foreignObject></g><g class="label" style="" transform="translate(0,36)"><foreignObject width="64" height="24"><div xmlns="http://www.w3.org/1999/xhtml" style="display: table-cell; white-space: nowrap; line-height: 1.5; max-width: 116px; text-align: center;"><span class="nodeLabel markdown-node-label" style=""><p>-worker()</p></span></div></foreignObject></g></g><g class="divider" style=""><path d="M-123.8203125 -60 C-40.18340910627249 -59.99966226501248, 43.453494287455015 -59.999324530024964, 123.8203125 -59.999 M-123.8203125 -60 C-34.25011324101722 -59.999638305713134, 55.320086017965565 -59.99927661142627, 123.8203125 -59.999" stroke="#9370DB" stroke-width="1.3" fill="none" stroke-dasharray="0 0" style=""/></g><g class="divider" style=""><path d="M-123.8203125 12 C-37.45800530838618 12.000348740466922, 48.904301883227646 12.000697480933846, 123.8203125 12.001 M-123.8203125 12 C-25.29839651556702 12.00039784230065, 73.22351946886596 12.0007956846013, 123.8203125 12.001" stroke="#9370DB" stroke-width="1.3" fill="none" stroke-dasharray="0 0" style=""/></g></g><g class="node default" id="my-svg-classId-FiberThreadBlock-1" data-look="classic" transform="translate(131.8203125, 519)"><g class="basic label-container outer-path"><path d="M-108.484375 -87 L108.484375 -87 L108.484375 87 L-108.484375 87" stroke="none" stroke-width="0" fill="#ECECFF" style=""/><path d="M-108.484375 -87 C-37.50190686284033 -87, 33.48056127431934 -87, 108.484375 -87 M-108.484375 -87 C-33.600604721542666 -87, 41.28316555691467 -87, 108.484375 -87 M108.484375 -87 C108.484375 -38.61314982029409, 108.484375 9.77370035941182, 108.484375 87 M108.484375 -87 C108.484375 -48.91597992961664, 108.484375 -10.83195985923328, 108.484375 87 M108.484375 87 C63.04861539325026 87, 17.612855786500518 87, -108.484375 87 M108.484375 87 C25.52460354341943 87, -57.43516791316114 87, -108.484375 87 M-108.484375 87 C-108.484375 46.0537074386022, -108.484375 5.1074148772044055, -108.484375 -87 M-108.484375 87 C-108.484375 23.576390700927753, -108.484375 -39.847218598144494, -108.484375 -87" stroke="#9370DB" stroke-width="1.3" fill="none" stroke-dasharray="0 0" style=""/></g><g class="annotation-group text" transform="translate(0, -63)"/><g class="label-group text" transform="translate(-68.015625, -63)"><g class="label" style="font-weight: bolder" transform="translate(0,-12)"><foreignObject width="136.03125" height="24"><div xmlns="http://www.w3.org/1999/xhtml" style="display: table-cell; white-space: nowrap; line-height: 1.5; max-width: 167px; text-align: center;"><span class="nodeLabel markdown-node-label" style=""><p>FiberThreadBlock</p></span></div></foreignObject></g></g><g class="members-group text" transform="translate(-96.484375, -15)"/><g class="methods-group text" transform="translate(-96.484375, 15)"><g class="label" style="" transform="translate(0,-12)"><foreignObject width="48.453125" height="24"><div xmlns="http://www.w3.org/1999/xhtml" style="display: table-cell; white-space: nowrap; line-height: 1.5; max-width: 102px; text-align: center;"><span class="nodeLabel markdown-node-label" style=""><p>+wait()</p></span></div></foreignObject></g><g class="label" style="" transform="translate(0,12)"><foreignObject width="57.359375" height="24"><div xmlns="http://www.w3.org/1999/xhtml" style="display: table-cell; white-space: nowrap; line-height: 1.5; max-width: 107px; text-align: center;"><span class="nodeLabel markdown-node-label" style=""><p>+close()</p></span></div></foreignObject></g><g class="label" style="" transform="translate(0,36)"><foreignObject width="124.953125" height="24"><div xmlns="http://www.w3.org/1999/xhtml" style="display: table-cell; white-space: nowrap; line-height: 1.5; max-width: 171px; text-align: center;"><span class="nodeLabel markdown-node-label" style=""><p>+isClosed() : bool</p></span></div></foreignObject></g></g><g class="divider" style=""><path d="M-108.484375 -39 C-62.54197000022921 -38.99978825335446, -16.599565000458426 -38.99957650670892, 108.484375 -38.999 M-108.484375 -39 C-42.08783280055282 -38.99969398108161, 24.308709398894365 -38.99938796216322, 108.484375 -38.999" stroke="#9370DB" stroke-width="1.3" fill="none" stroke-dasharray="0 0" style=""/></g><g class="divider" style=""><path d="M-108.484375 -15 C-34.824760160587886 -14.999660505880044, 38.83485467882423 -14.999321011760086, 108.484375 -14.999 M-108.484375 -15 C-28.231943430504842 -14.999630119860258, 52.020488138990316 -14.999260239720519, 108.484375 -14.999" stroke="#9370DB" stroke-width="1.3" fill="none" stroke-dasharray="0 0" style=""/></g></g><g class="node default" id="my-svg-classId-QtFiberThread-2" data-look="classic" transform="translate(580.57421875, 250)"><g class="basic label-container outer-path"><path d="M-126.26171875 -84 L126.26171875 -84 L126.26171875 84 L-126.26171875 84" stroke="none" stroke-width="0" fill="#ECECFF" style=""/><path d="M-126.26171875 -84 C-25.64814732005587 -84, 74.96542410988826 -84, 126.26171875 -84 M-126.26171875 -84 C-47.31465863856651 -84, 31.632401472866974 -84, 126.26171875 -84 M126.26171875 -84 C126.26171875 -24.34400976096466, 126.26171875 35.31198047807068, 126.26171875 84 M126.26171875 -84 C126.26171875 -24.87472380532722, 126.26171875 34.25055238934556, 126.26171875 84 M126.26171875 84 C32.1874723388336 84, -61.8867740723328 84, -126.26171875 84 M126.26171875 84 C64.11667667509096 84, 1.9716346001819005 84, -126.26171875 84 M-126.26171875 84 C-126.26171875 25.7856171813566, -126.26171875 -32.4287656372868, -126.26171875 -84 M-126.26171875 84 C-126.26171875 41.55386987630919, -126.26171875 -0.8922602473816141, -126.26171875 -84" stroke="#9370DB" stroke-width="1.3" fill="none" stroke-dasharray="0 0" style=""/></g><g class="annotation-group text" transform="translate(0, -60)"/><g class="label-group text" transform="translate(-55.1171875, -60)"><g class="label" style="font-weight: bolder" transform="translate(0,-12)"><foreignObject width="110.234375" height="24"><div xmlns="http://www.w3.org/1999/xhtml" style="display: table-cell; white-space: nowrap; line-height: 1.5; max-width: 145px; text-align: center;"><span class="nodeLabel markdown-node-label" style=""><p>QtFiberThread</p></span></div></foreignObject></g></g><g class="members-group text" transform="translate(-114.26171875, -12)"><g class="label" style="" transform="translate(0,-12)"><foreignObject width="173.40625" height="24"><div xmlns="http://www.w3.org/1999/xhtml" style="display: table-cell; white-space: nowrap; line-height: 1.5; max-width: 217px; text-align: center;"><span class="nodeLabel markdown-node-label" style=""><p>-block FiberThreadBlock</p></span></div></foreignObject></g></g><g class="methods-group text" transform="translate(-114.26171875, 36)"><g class="label" style="" transform="translate(0,-12)"><foreignObject width="43.125" height="24"><div xmlns="http://www.w3.org/1999/xhtml" style="display: table-cell; white-space: nowrap; line-height: 1.5; max-width: 95px; text-align: center;"><span class="nodeLabel markdown-node-label" style=""><p>+run()</p></span></div></foreignObject></g><g class="label" style="" transform="translate(0,12)"><foreignObject width="45.796875" height="24"><div xmlns="http://www.w3.org/1999/xhtml" style="display: table-cell; white-space: nowrap; line-height: 1.5; max-width: 99px; text-align: center;"><span class="nodeLabel markdown-node-label" style=""><p>+quit()</p></span></div></foreignObject></g></g><g class="divider" style=""><path d="M-126.26171875 -36 C-50.636502311004335 -35.999700521990405, 24.98871412799133 -35.99940104398081, 126.26171875 -35.999 M-126.26171875 -36 C-29.20140633187482 -35.99961563840023, 67.85890608625036 -35.99923127680045, 126.26171875 -35.999" stroke="#9370DB" stroke-width="1.3" fill="none" stroke-dasharray="0 0" style=""/></g><g class="divider" style=""><path d="M-126.26171875 12 C-69.85689696890563 12.000223364699687, -13.452075187811246 12.000446729399373, 126.26171875 12.001 M-126.26171875 12 C-34.74231478778668 12.00036241944458, 56.777089174426635 12.000724838889159, 126.26171875 12.001" stroke="#9370DB" stroke-width="1.3" fill="none" stroke-dasharray="0 0" style=""/></g></g><g class="node default" id="my-svg-classId-QThread-3" data-look="classic" transform="translate(580.57421875, 50)"><g class="basic label-container outer-path"><path d="M-44.8984375 -42 L44.8984375 -42 L44.8984375 42 L-44.8984375 42" stroke="none" stroke-width="0" fill="#ECECFF" style=""/><path d="M-44.8984375 -42 C-18.412738193299262 -42, 8.072961113401476 -42, 44.8984375 -42 M-44.8984375 -42 C-21.3485147122233 -42, 2.2014080755534025 -42, 44.8984375 -42 M44.8984375 -42 C44.8984375 -16.86616637201332, 44.8984375 8.267667255973357, 44.8984375 42 M44.8984375 -42 C44.8984375 -19.76009124425666, 44.8984375 2.4798175114866794, 44.8984375 42 M44.8984375 42 C21.514935410630827 42, -1.8685666787383468 42, -44.8984375 42 M44.8984375 42 C22.484275095544078 42, 0.07011269108815554 42, -44.8984375 42 M-44.8984375 42 C-44.8984375 25.141804372826556, -44.8984375 8.283608745653112, -44.8984375 -42 M-44.8984375 42 C-44.8984375 19.848398165010323, -44.8984375 -2.3032036699793537, -44.8984375 -42" stroke="#9370DB" stroke-width="1.3" fill="none" stroke-dasharray="0 0" style=""/></g><g class="annotation-group text" transform="translate(0, -18)"/><g class="label-group text" transform="translate(-32.8984375, -18)"><g class="label" style="font-weight: bolder" transform="translate(0,-12)"><foreignObject width="65.796875" height="24"><div xmlns="http://www.w3.org/1999/xhtml" style="display: table-cell; white-space: nowrap; line-height: 1.5; max-width: 107px; text-align: center;"><span class="nodeLabel markdown-node-label" style=""><p>QThread</p></span></div></foreignObject></g></g><g class="members-group text" transform="translate(-32.8984375, 30)"/><g class="methods-group text" transform="translate(-32.8984375, 60)"/><g class="divider" style=""><path d="M-44.8984375 6 C-19.082319983604275 6.000287494609544, 6.733797532791449 6.000574989219088, 44.8984375 6.001 M-44.8984375 6 C-12.047164823581348 6.000365839821001, 20.804107852837305 6.000731679642001, 44.8984375 6.001" stroke="#9370DB" stroke-width="1.3" fill="none" stroke-dasharray="0 0" style=""/></g><g class="divider" style=""><path d="M-44.8984375 24 C-19.86545591667238 24.00027877341593, 5.167525666655237 24.000557546831853, 44.8984375 24.001 M-44.8984375 24 C-19.423709406968754 24.000283692813287, 6.051018686062491 24.00056738562657, 44.8984375 24.001" stroke="#9370DB" stroke-width="1.3" fill="none" stroke-dasharray="0 0" style=""/></g></g><g class="node default" id="my-svg-classId-QtFiberScheduler-4" data-look="classic" transform="translate(369.4296875, 519)"><g class="basic label-container outer-path"><path d="M-79.125 -42 L79.125 -42 L79.125 42 L-79.125 42" stroke="none" stroke-width="0" fill="#ECECFF" style=""/><path d="M-79.125 -42 C-39.0121047761528 -42, 1.1007904476943935 -42, 79.125 -42 M-79.125 -42 C-28.614267324668248 -42, 21.896465350663505 -42, 79.125 -42 M79.125 -42 C79.125 -11.98480642804202, 79.125 18.03038714391596, 79.125 42 M79.125 -42 C79.125 -10.579798669369882, 79.125 20.840402661260235, 79.125 42 M79.125 42 C37.29874176994597 42, -4.52751646010806 42, -79.125 42 M79.125 42 C44.34397274378322 42, 9.562945487566438 42, -79.125 42 M-79.125 42 C-79.125 13.246136301383164, -79.125 -15.507727397233673, -79.125 -42 M-79.125 42 C-79.125 15.469848755644037, -79.125 -11.060302488711926, -79.125 -42" stroke="#9370DB" stroke-width="1.3" fill="none" stroke-dasharray="0 0" style=""/></g><g class="annotation-group text" transform="translate(0, -18)"/><g class="label-group text" transform="translate(-67.125, -18)"><g class="label" style="font-weight: bolder" transform="translate(0,-12)"><foreignObject width="134.25" height="24"><div xmlns="http://www.w3.org/1999/xhtml" style="display: table-cell; white-space: nowrap; line-height: 1.5; max-width: 164px; text-align: center;"><span class="nodeLabel markdown-node-label" style=""><p>QtFiberScheduler</p></span></div></foreignObject></g></g><g class="members-group text" transform="translate(-67.125, 30)"/><g class="methods-group text" transform="translate(-67.125, 60)"/><g class="divider" style=""><path d="M-79.125 6 C-40.887227513857326 6.000241628894067, -2.6494550277146516 6.000483257788135, 79.125 6.001 M-79.125 6 C-36.54099437746828 6.000269093242481, 6.04301124506344 6.000538186484961, 79.125 6.001" stroke="#9370DB" stroke-width="1.3" fill="none" stroke-dasharray="0 0" style=""/></g><g class="divider" style=""><path d="M-79.125 24 C-19.9840041498122 24.000373718773144, 39.1569917003756 24.00074743754629, 79.125 24.001 M-79.125 24 C-33.98265386388204 24.000285259691225, 11.159692272235915 24.000570519382446, 79.125 24.001" stroke="#9370DB" stroke-width="1.3" fill="none" stroke-dasharray="0 0" style=""/></g></g><g class="node default" id="my-svg-classId-QtLocalFiberScheduler-5" data-look="classic" transform="translate(598.578125, 519)"><g class="basic label-container outer-path"><path d="M-100.0234375 -42 L100.0234375 -42 L100.0234375 42 L-100.0234375 42" stroke="none" stroke-width="0" fill="#ECECFF" style=""/><path d="M-100.0234375 -42 C-54.58354760825893 -42, -9.143657716517865 -42, 100.0234375 -42 M-100.0234375 -42 C-35.34029329965274 -42, 29.342850900694515 -42, 100.0234375 -42 M100.0234375 -42 C100.0234375 -15.39952086669415, 100.0234375 11.2009582666117, 100.0234375 42 M100.0234375 -42 C100.0234375 -17.989010733509108, 100.0234375 6.021978532981784, 100.0234375 42 M100.0234375 42 C39.28141463729941 42, -21.460608225401174 42, -100.0234375 42 M100.0234375 42 C57.20840906578278 42, 14.393380631565563 42, -100.0234375 42 M-100.0234375 42 C-100.0234375 20.08367694456615, -100.0234375 -1.8326461108676995, -100.0234375 -42 M-100.0234375 42 C-100.0234375 11.050668983508551, -100.0234375 -19.898662032982898, -100.0234375 -42" stroke="#9370DB" stroke-width="1.3" fill="none" stroke-dasharray="0 0" style=""/></g><g class="annotation-group text" transform="translate(0, -18)"/><g class="label-group text" transform="translate(-88.0234375, -18)"><g class="label" style="font-weight: bolder" transform="translate(0,-12)"><foreignObject width="176.046875" height="24"><div xmlns="http://www.w3.org/1999/xhtml" style="display: table-cell; white-space: nowrap; line-height: 1.5; max-width: 201px; text-align: center;"><span class="nodeLabel markdown-node-label" style=""><p>QtLocalFiberScheduler</p></span></div></foreignObject></g></g><g class="members-group text" transform="translate(-88.0234375, 30)"/><g class="methods-group text" transform="translate(-88.0234375, 60)"/><g class="divider" style=""><path d="M-100.0234375 6 C-56.403907700218966 6.00021804654434, -12.784377900437931 6.00043609308868, 100.0234375 6.001 M-100.0234375 6 C-28.366972715067817 6.000358198371181, 43.289492069864366 6.000716396742363, 100.0234375 6.001" stroke="#9370DB" stroke-width="1.3" fill="none" stroke-dasharray="0 0" style=""/></g><g class="divider" style=""><path d="M-100.0234375 24 C-21.430472731154993 24.000392872744296, 57.162492037690015 24.000785745488592, 100.0234375 24.001 M-100.0234375 24 C-51.675456491415005 24.00024168326053, -3.3274754828300104 24.00048336652106, 100.0234375 24.001" stroke="#9370DB" stroke-width="1.3" fill="none" stroke-dasharray="0 0" style=""/></g></g></g></g></g><defs><filter id="my-svg-drop-shadow" height="130%" width="130%"><feDropShadow dx="4" dy="4" stdDeviation="0" flood-opacity="0.06" flood-color="#000000"/></filter></defs><defs><filter id="my-svg-drop-shadow-small" height="150%" width="150%"><feDropShadow dx="2" dy="2" stdDeviation="0" flood-opacity="0.06" flood-color="#000000"/></filter></defs></svg>